<svg width="500" height="500" fill="none" xmlns="http://www.w3.org/2000/svg"><rect width="500" height="500" rx="120" fill="#fff"/><g clip-path="url(#clip0_1_192)" fill="#272727"><path d="M306.25 100.236h-112.5c-51.769 0-93.75 41.982-93.75 93.75v112.5c0 51.769 41.981 93.75 93.75 93.75h112.5c51.769 0 93.75-41.981 93.75-93.75v-112.5c0-51.768-41.981-93.75-93.75-93.75zm65.625 206.25c0 36.188-29.437 65.625-65.625 65.625h-112.5c-36.188 0-65.625-29.437-65.625-65.625v-112.5c0-36.187 29.437-65.625 65.625-65.625h112.5c36.188 0 65.625 29.438 65.625 65.625v112.5z"/><path d="M250 175.236c-41.419 0-75 33.582-75 75 0 41.419 33.581 75 75 75s75-33.581 75-75c0-41.418-33.581-75-75-75zm0 121.875c-25.838 0-46.875-21.037-46.875-46.875 0-25.856 21.037-46.875 46.875-46.875s46.875 21.019 46.875 46.875c0 25.838-21.037 46.875-46.875 46.875zm80.625-117.506c5.519 0 9.994-4.475 9.994-9.994s-4.475-9.994-9.994-9.994-9.994 4.475-9.994 9.994 4.475 9.994 9.994 9.994z"/></g><defs><clipPath id="clip0_1_192"><path fill="#fff" transform="translate(100 100.236)" d="M0 0h300v300H0z"/></clipPath></defs></svg>