<svg width="26" height="26" fill="none" xmlns="http://www.w3.org/2000/svg"><path fill-rule="evenodd" clip-rule="evenodd" d="M2.003 13.618s6.944 8.646 9.287 11.545c.39.53 1.042.837 1.693.837.694 0 1.302-.306 1.736-.837 1.78-2.22 6.38-7.897 9.287-11.545 1.91-2.388 2.517-5.647 1.52-8.583-.695-2.028-2.17-3.656-4.08-4.472A7.027 7.027 0 0015.5.766l-2.517 1.271-2.474-1.27A7.027 7.027 0 004.564.562c-1.91.816-3.386 2.444-4.08 4.472C-.514 7.97.05 11.23 2.003 13.618zM13.2 22.95c-.043.063-.13.1-.217.1a.251.251 0 01-.174-.1c-1.388-1.678-8.896-11.017-8.896-11.017C2.567 10.256 2.177 7.965 2.87 5.9c.434-1.319 1.389-2.377 2.647-2.908a4.558 4.558 0 013.863.133c1.692.854 3.081 1.553 3.081 1.553.347.178.738.178 1.085 0l3.081-1.553c1.172-.616 2.604-.664 3.863-.133A4.86 4.86 0 0123.138 5.9c.694 2.064.304 4.355-1.085 6.033 0 0-7.508 9.34-8.853 11.017z" fill="#000"/></svg>