<svg width="500" height="500" fill="none" xmlns="http://www.w3.org/2000/svg"><rect width="500" height="500" rx="120" fill="#fff"/><g clip-path="url(#clip0_1_100)" fill="#272727"><path d="M167.088 193.75H100V400h67.088V193.75zm182.737 2.419c-.712-.225-1.387-.469-2.137-.675a43.06 43.06 0 00-2.719-.525c-3.563-.713-7.463-1.219-12.038-1.219-39.112 0-63.918 28.444-72.093 39.431V193.75H193.75V400h67.088V287.5s50.7-70.613 72.093-18.75V400H400V260.819c0-31.163-21.356-57.131-50.175-64.65zm-217.013-30.544c18.122 0 32.813-14.691 32.813-32.813 0-18.121-14.691-32.812-32.813-32.812C114.691 100 100 114.691 100 132.812c0 18.122 14.691 32.813 32.812 32.813z"/></g><defs><clipPath id="clip0_1_100"><path fill="#fff" transform="translate(100 100)" d="M0 0h300v300H0z"/></clipPath></defs></svg>