<svg width="500" height="500" fill="none" xmlns="http://www.w3.org/2000/svg"><rect width="500" height="500" rx="120" fill="#fff"/><g clip-path="url(#clip0_1_3)"><path d="M250 100c-82.706 0-150 67.294-150 150s67.294 150 150 150 150-67.294 150-150-67.294-150-150-150zm68.812 216.525a9.355 9.355 0 01-7.668 3.994 9.21 9.21 0 01-5.382-1.707c-35.156-24.712-93.637-26.081-133.124-16.874-5.007 1.181-10.088-1.969-11.251-7.013-1.162-5.044 1.951-10.088 7.013-11.269 43.406-10.05 108.281-8.212 148.125 19.819 4.238 2.981 5.25 8.813 2.287 13.05zm18.301-36.581a9.362 9.362 0 01-7.613 3.9 9.287 9.287 0 01-5.475-1.763c-40.781-29.268-90.881-36.544-157.744-22.893-5.043.993-10.031-2.232-11.062-7.313-1.05-5.063 2.231-10.031 7.294-11.063 72.318-14.756 127.106-6.506 172.443 26.025 4.2 3.038 5.175 8.888 2.157 13.107zm18.487-49.125a9.366 9.366 0 01-7.762 4.106 9.397 9.397 0 01-5.269-1.613c-51.694-35.081-130.275-35.25-181.144-17.25-4.875 1.688-10.237-.843-11.962-5.737-1.726-4.875.825-10.238 5.718-11.963 55.332-19.556 141.075-19.143 197.944 19.425 4.275 2.907 5.362 8.738 2.475 13.032z" fill="#272727"/></g><defs><clipPath id="clip0_1_3"><path fill="#fff" transform="translate(100 100)" d="M0 0h300v300H0z"/></clipPath></defs></svg>