<svg width="500" height="500" fill="none" xmlns="http://www.w3.org/2000/svg"><rect width="500" height="500" rx="120" fill="#fff"/><path d="M387.25 166.75c-8.138-14.475-16.969-17.137-34.95-18.15-17.962-1.219-63.131-1.725-102.263-1.725-39.206 0-84.393.506-102.337 1.706-17.944 1.032-26.794 3.675-35.006 18.169C104.312 181.206 100 206.106 100 249.944v.15c0 43.65 4.312 68.737 12.694 83.043 8.212 14.476 17.043 17.101 34.987 18.319 17.963 1.05 63.15 1.669 102.356 1.669 39.132 0 84.3-.619 102.282-1.65 17.981-1.219 26.812-3.844 34.95-18.319C395.725 318.85 400 293.762 400 250.112v-.149c0-43.857-4.275-68.757-12.75-83.213zM212.5 306.25v-112.5L306.25 250l-93.75 56.25z" fill="#272727"/></svg>